P2
# CREATOR: GIMP PNM Filter Version 1.1
100 100
255
0
0
1
2
3
3
2
3
3
3
3
2
4
4
6
6
5
5
5
5
5
7
7
7
6
6
6
6
7
8
8
8
7
6
4
3
3
4
5
5
5
6
7
10
14
18
20
19
19
18
18
16
16
16
14
12
9
8
7
7
6
5
5
4
4
3
4
5
6
6
7
7
8
9
8
8
8
8
7
7
7
6
6
6
7
7
6
6
5
4
3
4
4
4
5
5
5
6
6
6
4
3
4
4
4
3
3
4
4
3
4
4
4
4
5
6
5
5
5
6
6
8
8
8
7
7
7
7
8
8
8
9
7
6
5
4
5
6
6
7
13
25
40
55
69
78
82
81
77
74
70
65
62
64
61
50
39
29
21
15
10
5
3
3
2
2
3
4
6
6
6
7
7
7
7
8
8
7
6
7
6
7
7
7
7
8
8
7
6
5
5
5
5
4
5
6
6
6
6
6
7
7
7
7
6
7
7
7
7
6
5
5
5
5
6
6
5
5
3
3
4
6
6
7
7
7
7
7
6
5
5
6
7
6
6
6
7
6
7
19
48
89
121
139
151
157
160
158
151
145
141
140
143
147
143
128
112
95
78
59
33
14
5
3
3
3
5
9
15
17
15
11
8
8
8
7
6
5
5
5
5
5
7
7
7
8
7
6
5
5
5
4
4
5
5
5
4
4
4
4
5
5
6
6
9
12
11
8
6
6
6
6
7
7
8
8
7
6
5
4
5
6
8
8
8
8
8
7
5
3
4
5
6
5
6
6
5
8
24
67
123
160
176
181
183
185
185
181
175
176
183
190
192
193
189
183
173
163
149
126
93
55
29
15
12
13
22
38
53
61
55
41
28
22
17
12
11
11
10
10
10
11
11
10
9
8
7
7
7
6
5
4
4
4
4
4
3
4
3
3
6
5
4
7
14
22
24
16
9
8
10
12
14
12
11
9
7
7
7
8
8
10
10
10
9
9
9
7
6
5
6
6
7
7
8
8
13
36
85
141
175
187
189
190
190
188
184
179
180
194
201
202
203
198
193
191
188
184
177
167
144
113
81
51
39
43
62
89
110
122
121
106
89
76
59
42
33
30
30
29
30
29
28
25
21
18
16
15
15
15
14
12
11
9
7
5
4
4
3
2
24
26
23
25
34
45
48
40
35
32
38
43
44
41
34
30
26
21
21
23
25
24
24
20
16
13
11
9
11
11
12
13
14
16
19
27
51
103
158
181
189
191
192
189
187
184
179
183
194
204
204
208
205
196
191
187
186
185
179
175
168
156
133
102
81
85
105
128
144
154
161
160
156
151
135
109
86
69
62
60
59
58
55
51
46
41
36
35
34
34
33
32
29
25
21
18
16
13
10
7
58
57
58
62
67
73
76
75
72
74
81
87
87
81
74
71
66
60
59
59
60
57
55
49
41
35
29
27
28
29
30
32
32
38
43
64
110
161
184
189
191
191
188
186
184
180
184
195
203
207
212
211
206
199
190
185
184
180
176
173
173
174
166
143
121
118
130
141
148
156
167
175
180
188
191
181
161
130
106
93
89
88
85
81
77
70
65
61
60
60
59
58
55
50
46
42
39
35
31
25
82
83
84
88
90
93
96
98
98
100
106
110
110
107
105
103
101
98
97
95
93
90
88
84
78
71
66
63
62
61
61
60
61
67
81
116
162
184
188
188
187
189
190
190
188
189
196
202
209
212
217
213
210
203
196
189
183
177
173
175
178
181
178
163
140
132
136
141
146
151
158
170
178
185
196
206
207
191
159
129
113
108
106
104
101
97
92
88
86
85
85
84
82
78
73
69
67
63
58
53
94
95
97
98
103
106
106
106
107
109
114
117
119
119
118
118
118
118
115
112
109
107
105
104
103
102
101
101
97
93
89
87
88
96
122
159
181
187
187
189
188
192
195
196
197
200
203
208
211
220
218
218
216
211
207
199
191
182
180
183
185
187
185
172
150
136
137
141
144
149
152
159
172
181
189
201
212
215
204
171
137
122
118
117
115
113
110
106
104
103
103
103
102
100
97
94
92
90
87
81
105
104
105
107
111
112
112
113
114
116
120
123
124
126
127
126
127
127
126
122
119
116
114
114
117
119
121
120
118
111
106
105
107
122
156
176
183
187
187
191
194
197
199
201
202
205
204
210
209
212
206
211
209
213
216
211
207
201
201
202
203
202
198
188
170
152
145
144
146
149
153
158
167
181
190
197
209
218
222
207
169
137
126
124
123
121
120
117
115
114
113
114
114
112
110
109
108
107
106
102
117
114
113
114
117
118
119
121
123
125
127
129
131
133
134
135
136
135
132
130
128
124
123
124
126
129
130
130
127
123
119
119
126
150
172
180
182
184
185
190
197
199
201
201
202
197
188
166
137
115
97
101
112
163
213
219
218
217
215
215
216
218
214
212
204
187
167
156
154
156
158
163
170
178
191
202
211
218
224
223
201
160
136
130
128
127
126
124
123
122
122
122
121
119
118
117
116
115
115
114
126
122
121
121
123
124
124
127
129
131
132
134
137
139
141
143
143
143
140
136
133
131
130
131
131
132
133
134
134
132
130
132
146
168
176
181
184
182
185
191
200
198
199
183
149
94
52
34
40
68
113
152
176
185
181
172
201
218
210
173
196
224
224
225
222
216
201
183
175
175
177
181
187
192
199
208
217
222
225
228
217
182
147
135
133
132
131
130
128
127
127
127
126
125
123
122
121
121
121
120
132
130
128
128
128
127
126
127
129
131
133
137
139
143
147
148
149
150
148
145
141
138
138
137
136
135
136
138
140
138
138
146
161
172
177
182
183
185
191
195
198
182
131
60
26
29
57
113
168
195
180
136
90
57
44
52
112
196
222
185
144
217
227
228
227
227
223
214
207
203
201
202
207
210
213
219
224
226
227
231
225
196
160
141
136
136
135
134
132
131
130
130
130
127
126
125
124
124
125
125
143
145
138
133
132
130
128
129
129
131
134
137
139
145
148
150
151
152
153
151
150
146
145
143
141
141
141
143
143
143
147
159
168
174
178
183
187
189
192
198
169
67
5
8
52
138
191
189
136
77
45
49
67
112
165
181
204
222
226
219
169
199
229
231
231
230
230
230
227
223
219
218
217
218
222
226
230
230
232
234
227
202
171
146
138
137
138
136
134
132
132
131
130
129
128
127
127
127
127
127
149
155
154
144
138
134
132
130
130
130
134
137
139
142
147
148
150
152
155
156
156
153
152
149
148
147
147
146
145
147
155
165
171
177
181
185
189
193
195
178
138
82
3
2
36
119
95
46
48
94
155
199
192
132
172
148
193
184
191
196
179
210
222
225
230
224
218
231
234
233
231
225
223
225
231
231
234
236
234
232
224
204
180
154
140
139
139
138
135
134
132
131
131
130
129
129
128
127
128
129
152
153
161
156
153
144
139
136
133
130
133
136
138
140
144
146
149
153
156
158
160
160
157
154
153
152
150
148
148
154
163
169
175
181
183
186
191
197
193
145
53
95
85
125
80
74
100
131
192
222
231
233
231
226
179
126
219
174
178
129
127
142
141
137
173
151
130
194
233
236
237
232
230
233
234
239
237
239
235
231
221
204
188
162
144
141
140
139
137
134
133
132
132
132
132
131
131
130
130
130
153
155
167
166
164
155
147
142
136
132
132
133
135
138
141
142
147
153
157
160
162
163
161
157
156
156
153
151
154
161
167
172
181
190
193
202
207
212
220
223
218
229
236
232
233
238
238
240
241
243
237
239
243
238
240
236
242
237
233
222
230
216
207
195
187
172
168
136
210
232
229
228
234
238
238
241
239
238
235
227
215
204
194
171
148
142
141
141
139
136
133
133
134
133
135
135
134
133
133
132
156
160
176
174
168
167
161
151
141
136
133
131
134
138
140
142
146
153
155
157
161
161
160
157
157
158
156
159
166
180
188
201
217
219
225
228
230
231
231
236
234
235
239
236
240
238
244
243
238
242
241
243
241
241
243
239
246
243
249
247
251
247
239
230
218
211
208
197
204
216
224
234
240
242
239
242
237
232
229
223
214
203
199
180
151
143
142
142
141
139
135
134
135
136
137
137
137
136
136
135
163
163
174
175
166
174
175
165
152
142
134
131
134
137
139
139
144
151
153
154
158
159
158
157
157
160
174
193
205
217
222
229
228
226
230
232
231
230
231
236
233
231
232
236
239
225
236
240
234
244
242
230
230
232
235
232
229
236
240
243
242
247
241
252
250
247
241
234
243
239
240
240
245
241
239
239
232
226
222
216
211
202
203
188
157
143
143
143
143
141
138
135
136
137
139
139
139
139
139
138
169
164
172
179
167
173
175
177
166
149
139
134
133
133
135
137
142
146
148
151
153
155
155
160
176
197
216
221
221
222
224
225
223
226
229
224
230
232
223
230
232
226
233
236
229
234
236
235
227
233
230
218
229
231
225
222
233
240
231
230
232
234
239
243
249
239
250
248
248
243
246
244
248
242
239
235
232
226
219
211
207
204
204
195
163
144
143
144
144
143
139
137
137
138
140
140
140
141
141
140
169
164
176
182
172
171
168
175
176
160
145
138
134
132
132
135
138
141
143
146
149
154
170
193
210
216
219
222
221
220
227
226
216
228
233
219
230
227
222
232
233
226
233
231
219
234
241
221
232
237
221
219
233
236
216
231
228
226
224
231
234
220
231
228
232
236
245
248
238
250
253
245
246
245
245
240
232
224
216
212
207
205
206
201
171
147
143
144
144
143
141
140
139
141
141
141
142
142
142
141
167
161
174
184
181
175
171
172
178
173
156
142
137
132
132
135
136
134
136
143
153
180
207
217
215
221
220
217
225
221
223
224
218
226
223
223
227
223
225
229
224
224
232
230
228
227
227
218
225
227
215
230
234
223
217
234
240
218
232
231
223
223
232
230
214
230
230
235
233
240
245
243
245
244
242
242
236
229
222
213
209
208
210
205
182
153
144
142
142
141
140
140
140
141
142
143
143
143
143
142
172
164
173
179
182
186
182
178
177
177
168
152
142
135
134
137
135
130
134
156
191
214
215
221
216
220
218
214
220
214
225
222
217
227
219
218
229
217
224
237
226
238
238
211
226
232
222
216
229
237
226
229
237
227
234
232
222
217
232
228
216
235
229
222
220
234
234
214
226
229
234
235
250
251
243
242
240
233
229
221
213
212
215
212
195
163
146
143
141
140
140
140
141
142
143
145
145
144
143
144
176
174
179
177
178
186
186
178
174
176
176
165
149
140
135
135
133
130
150
197
212
216
214
219
219
219
221
217
221
212
221
219
223
228
213
226
234
230
238
234
231
234
225
218
234
240
222
230
237
220
230
238
228
215
226
232
221
232
234
222
223
234
230
220
234
235
222
219
229
231
227
235
239
244
240
247
239
233
232
228
222
216
218
218
210
175
150
144
141
140
139
139
140
141
142
145
145
145
144
143
180
178
177
177
179
183
180
173
169
175
180
172
155
142
134
132
131
146
192
213
214
219
216
219
217
214
216
208
220
216
223
216
226
230
230
236
228
239
232
216
236
231
224
233
236
240
235
241
250
240
242
244
233
228
240
234
222
231
237
216
226
237
220
223
232
231
213
223
235
216
219
221
232
226
239
247
248
235
232
232
228
224
222
223
220
190
157
146
142
141
140
140
141
141
143
145
146
145
144
143
183
177
169
177
183
184
177
172
170
171
179
174
159
149
138
133
138
182
209
216
214
217
215
218
213
210
217
220
218
222
223
230
234
230
236
234
231
234
236
226
236
243
236
243
246
231
246
248
235
244
244
245
235
239
243
237
243
245
234
227
236
230
218
227
236
220
222
230
218
202
214
216
208
216
231
237
233
241
239
231
233
231
228
225
226
207
170
150
145
143
141
142
142
142
144
144
145
145
145
144
185
186
173
178
183
180
178
179
171
169
176
175
167
160
149
146
175
208
212
217
216
217
212
211
217
218
217
222
217
228
227
229
228
237
233
227
234
237
232
241
243
243
245
249
244
245
247
246
244
245
251
240
247
244
248
239
238
248
227
245
246
238
228
227
221
209
224
228
210
211
213
198
192
205
219
222
233
242
246
234
234
234
232
229
229
222
187
156
148
145
144
143
144
145
145
145
146
145
145
145
186
191
182
183
182
178
180
185
175
172
174
175
173
168
160
167
200
211
213
214
215
214
211
211
216
219
218
223
223
223
234
236
234
236
237
234
242
238
242
243
240
247
246
247
244
247
253
244
250
250
243
245
249
252
244
250
249
248
234
235
248
231
238
235
222
212
222
213
198
208
209
190
184
200
200
206
223
238
239
232
235
233
230
231
233
229
202
165
150
147
144
145
146
147
147
146
146
146
145
146
184
183
183
186
183
179
179
186
181
174
171
171
173
172
173
190
205
209
215
213
215
213
214
215
217
219
224
224
229
231
236
234
235
241
237
243
239
243
242
242
241
239
251
241
247
249
234
248
245
252
239
250
250
246
240
246
249
240
247
246
247
237
243
244
232
231
224
199
199
209
191
189
190
185
183
195
213
217
224
239
242
232
233
232
233
233
215
177
154
149
147
147
149
149
149
148
147
145
146
147
181
176
178
182
184
180
170
178
178
172
169
167
169
177
184
197
204
207
213
208
212
212
215
215
221
220
227
227
229
238
240
231
241
244
236
239
243
233
242
237
234
242
236
239
246
237
235
242
241
231
244
236
247
237
247
247
243
236
243
245
238
242
245
243
227
231
235
218
217
212
194
192
199
172
168
185
194
211
224
228
235
235
233
234
234
236
225
193
161
151
149
149
150
151
151
149
148
147
148
149
184
177
179
180
186
182
168
169
170
172
172
169
167
178
189
197
204
207
209
208
212
213
216
218
222
228
224
233
236
230
227
236
233
204
236
230
207
240
227
198
238
231
211
236
223
237
235
223
239
200
244
230
241
233
242
243
233
247
244
247
231
238
245
244
243
239
236
228
232
216
200
191
179
163
169
164
178
202
210
217
232
239
241
235
237
236
230
206
171
154
151
150
151
152
152
151
150
148
148
150
188
183
187
184
186
185
176
171
169
175
176
170
167
179
189
194
201
206
207
210
210
214
220
221
219
231
233
229
217
216
228
222
215
230
217
222
224
211
220
229
201
218
216
218
225
191
230
227
221
236
216
240
209
241
241
239
225
241
240
243
246
243
250
234
243
246
234
239
239
229
218
208
181
167
164
156
164
182
198
210
217
224
242
237
238
237
236
219
184
159
152
152
152
152
153
152
151
149
149
148
186
188
193
188
186
184
179
178
173
180
184
173
170
178
186
192
200
205
205
210
216
219
217
228
231
225
217
213
218
223
215
207
220
200
210
210
202
208
211
195
216
212
204
216
215
212
204
212
198
213
229
214
224
211
230
200
229
224
238
220
238
235
236
243
250
253
239
245
243
226
228
220
193
172
157
154
156
161
188
205
220
223
213
227
233
235
238
227
197
166
154
153
153
152
153
153
151
150
150
149
186
188
195
192
187
183
181
182
180
185
186
176
171
174
180
188
195
202
206
213
219
225
222
216
215
219
209
215
204
203
207
186
172
144
130
131
105
107
105
97
117
135
138
147
165
162
180
199
205
207
203
209
206
227
210
219
212
220
189
225
215
238
208
239
236
236
240
244
244
248
247
231
212
193
167
155
149
152
169
195
210
206
234
235
234
230
232
232
214
180
157
153
153
153
154
153
152
151
150
150
191
192
194
192
190
186
183
183
182
179
177
171
166
169
173
184
192
199
208
217
211
213
203
210
201
210
206
184
152
117
101
72
68
68
71
68
67
67
70
68
67
68
67
67
64
65
61
64
71
92
136
157
183
206
204
200
217
214
221
213
226
204
229
220
232
209
237
244
233
247
251
243
234
220
185
164
146
145
150
176
202
211
208
227
236
228
227
233
230
201
167
156
155
155
155
154
153
151
151
151
189
195
192
189
186
184
181
182
179
174
172
162
158
159
168
178
189
201
215
221
215
212
206
203
200
168
119
82
74
78
78
81
82
81
79
76
78
77
75
76
75
76
77
79
74
70
68
63
60
57
53
55
57
83
125
185
199
193
191
215
219
221
209
229
219
233
234
235
226
239
244
241
246
234
208
182
156
143
142
158
195
212
220
210
218
230
225
228
231
222
187
160
156
157
156
155
154
152
152
152
187
196
195
191
188
185
183
184
178
173
165
151
149
149
159
173
187
205
211
212
207
211
192
176
119
77
81
86
86
90
89
91
91
91
88
84
85
82
81
82
82
84
84
87
84
78
74
71
66
66
63
59
56
52
49
58
71
99
182
192
190
193
199
204
190
216
218
222
215
226
234
231
246
244
226
202
174
146
139
145
172
201
211
220
225
232
224
222
224
228
210
172
159
157
157
157
155
153
152
152
189
194
195
194
191
185
184
186
181
169
154
145
138
138
148
165
187
212
212
198
197
185
153
77
72
84
93
95
94
95
93
93
95
95
91
88
90
85
85
89
89
91
88
87
90
87
77
76
74
74
71
65
62
59
57
52
50
46
54
66
93
161
190
187
200
192
205
190
215
207
204
216
218
229
236
218
194
163
140
138
155
198
208
200
214
225
223
219
219
223
222
195
164
158
158
158
157
155
153
152
193
195
193
190
187
182
181
182
181
164
143
133
127
127
139
162
195
209
207
196
185
157
73
68
85
92
96
94
94
95
94
92
94
91
93
89
86
87
89
90
92
95
95
93
97
93
82
83
81
75
74
72
68
65
63
58
53
50
50
47
44
42
47
112
166
191
190
200
195
204
207
197
225
219
227
231
217
187
154
130
142
184
202
209
205
213
216
219
219
220
223
211
173
159
159
159
157
156
155
153
195
198
193
189
189
188
184
182
175
153
138
124
117
118
130
165
206
204
192
189
157
73
60
87
93
96
97
92
91
91
89
88
90
89
90
87
84
87
88
89
93
99
99
101
100
94
87
89
84
82
76
77
74
67
68
61
55
52
52
52
46
45
44
42
40
69
151
187
192
195
192
214
218
206
227
218
224
209
180
141
130
163
202
207
210
204
212
214
212
216
222
217
183
160
158
159
159
158
156
154
197
199
192
185
186
190
187
185
168
145
128
117
108
108
124
177
206
199
191
165
102
43
80
95
96
95
91
89
85
84
84
89
89
94
88
86
86
87
88
86
93
99
101
101
99
93
90
90
85
84
81
80
77
69
71
69
61
54
56
54
52
52
49
48
42
36
45
80
149
178
184
188
177
200
197
196
217
213
198
164
130
141
199
212
206
209
212
207
202
202
213
215
190
162
159
159
160
159
157
155
201
200
194
184
183
187
183
181
159
137
124
110
101
102
133
191
197
186
180
120
36
59
88
92
85
76
75
71
67
69
71
73
74
77
79
84
86
89
85
87
86
91
97
93
93
89
90
87
87
81
85
82
76
72
77
75
71
62
60
60
57
56
52
51
46
41
40
38
39
83
154
170
183
187
181
196
193
195
198
180
148
130
188
206
204
199
207
206
202
198
198
205
190
164
159
159
159
159
157
155
200
199
197
190
185
184
180
176
152
131
116
105
96
100
154
195
189
178
140
75
21
74
82
72
56
54
52
48
53
51
49
54
62
67
71
75
81
80
80
84
86
87
87
87
91
87
90
87
86
84
82
76
73
74
79
78
78
69
65
60
58
53
51
52
52
45
45
41
40
37
38
79
159
176
184
185
188
197
192
185
170
132
187
202
202
199
199
203
203
194
191
201
192
166
157
158
158
159
158
155
197
198
196
192
185
181
177
170
144
126
113
100
91
109
167
181
171
168
118
24
46
73
57
56
58
57
60
63
63
62
60
62
66
67
70
76
77
73
75
82
83
80
86
97
94
93
91
85
84
80
76
75
79
80
74
73
69
61
51
46
47
42
40
42
42
37
36
40
40
42
43
35
42
92
166
176
176
183
189
183
176
140
171
201
204
199
198
195
197
195
193
193
191
168
156
157
158
158
157
154
195
196
193
190
185
177
173
163
137
121
109
97
88
128
168
169
156
134
61
23
52
44
49
60
71
76
80
81
81
82
81
82
79
76
79
77
74
75
82
82
77
82
95
98
97
95
89
86
77
72
75
73
77
76
70
61
55
48
45
40
35
28
26
35
42
36
32
31
34
40
48
45
40
28
62
116
167
173
169
184
166
148
173
204
193
194
197
200
204
200
202
197
190
168
155
155
157
158
157
154
194
190
190
192
186
174
169
157
134
117
105
91
96
138
152
146
143
92
24
37
50
51
61
74
89
95
97
92
94
93
92
94
93
85
88
86
83
83
88
84
89
92
102
102
98
97
87
81
76
69
68
72
71
71
68
59
53
49
47
46
42
43
34
37
44
48
43
35
34
38
46
49
48
43
31
35
84
149
167
167
175
147
178
194
194
189
190
189
201
209
210
196
188
170
156
155
156
157
157
154
191
184
187
191
184
172
165
152
127
110
100
92
105
127
132
124
108
47
25
55
63
70
82
93
100
103
98
91
96
99
95
98
94
90
88
87
86
80
85
95
102
100
101
101
97
93
85
76
74
70
64
67
67
70
68
64
60
58
54
56
56
56
52
52
53
52
50
47
39
41
45
42
40
46
42
31
18
63
130
155
165
149
163
185
193
192
194
191
192
215
218
194
185
170
157
156
156
156
156
153
192
186
184
186
182
172
159
146
125
110
95
92
108
109
104
96
58
17
48
70
80
88
95
101
100
97
90
79
76
71
65
61
64
68
78
83
81
83
90
92
94
98
102
100
91
84
77
72
69
65
59
50
56
58
60
61
64
63
58
60
62
68
70
70
70
67
66
58
56
47
45
42
40
34
44
45
31
15
56
123
140
133
154
183
186
190
192
190
194
222
227
197
184
169
157
155
155
156
156
153
173
186
181
181
179
168
152
138
121
106
94
91
103
90
72
61
18
25
68
80
87
92
96
93
85
75
65
68
68
66
74
66
56
50
62
71
69
83
81
88
90
96
100
103
108
100
91
78
66
54
44
40
42
46
48
52
55
57
58
64
70
71
75
74
73
75
72
71
70
66
63
55
49
40
39
49
44
29
8
42
103
97
135
171
188
186
189
185
193
218
235
208
182
166
157
155
155
155
155
153
108
133
171
175
172
163
155
139
117
98
87
88
95
72
48
28
7
53
79
87
91
93
92
85
82
77
70
66
60
69
68
53
50
44
42
56
64
83
73
87
91
101
109
118
122
123
112
94
77
64
51
39
32
33
33
36
36
36
44
49
51
48
46
54
64
69
68
71
74
75
75
68
63
57
50
49
53
45
24
3
23
49
118
165
177
182
187
188
191
212
235
211
178
161
155
154
154
154
153
153
95
97
124
170
167
157
151
136
114
97
83
82
86
59
34
7
27
74
85
89
90
89
87
82
74
72
66
66
67
73
66
54
52
44
41
37
46
67
74
80
92
106
115
130
137
134
121
104
88
72
57
38
27
20
16
21
34
52
66
69
73
74
71
63
54
48
48
59
72
74
78
74
72
71
62
58
63
55
40
15
0
4
108
160
172
177
179
184
191
207
230
214
177
158
154
152
153
153
153
152
89
91
99
148
163
152
147
134
110
92
77
72
76
50
25
8
57
82
87
89
89
81
77
78
74
69
67
63
57
61
52
48
47
44
44
42
43
63
75
88
104
114
123
137
140
135
129
115
98
75
57
40
22
12
21
35
48
59
66
65
77
80
72
65
59
58
61
53
54
58
68
71
71
72
65
65
67
63
49
28
3
4
99
148
172
175
181
178
186
198
224
220
178
156
152
152
151
152
152
151
82
93
92
116
156
150
147
136
114
94
76
62
60
41
20
23
75
85
87
91
89
68
64
61
47
35
25
15
19
28
30
35
30
24
20
25
50
71
85
105
115
120
126
131
136
135
133
123
114
94
67
51
35
49
47
52
57
63
66
69
77
82
84
79
71
66
52
45
61
65
60
64
68
69
67
65
67
66
58
39
9
8
99
152
165
175
178
180
181
186
211
221
178
157
157
154
152
150
150
149
73
82
81
90
149
147
143
133
113
92
71
53
41
32
17
46
81
85
86
88
75
67
65
53
51
58
61
68
72
74
75
77
70
67
62
64
71
92
108
117
119
126
133
140
144
139
136
128
123
115
93
75
59
57
37
29
34
34
43
49
61
56
66
70
70
76
76
69
49
52
65
63
67
69
68
69
72
68
63
49
17
10
96
145
167
170
177
175
184
184
199
212
173
161
165
163
155
151
149
147
60
70
71
66
139
145
139
132
114
90
70
49
28
12
14
60
80
83
84
89
91
100
105
106
108
107
105
100
97
89
90
78
72
58
56
78
96
113
117
117
127
139
150
155
152
148
137
128
125
123
115
98
78
60
66
59
46
33
24
20
21
18
15
19
30
40
50
63
67
70
68
72
72
69
68
69
74
74
69
57
28
8
88
136
161
170
173
175
181
180
188
194
161
163
172
172
167
162
156
148
59
82
86
65
127
144
135
128
116
92
70
48
24
3
21
67
79
86
87
92
98
101
103
108
113
113
112
104
98
88
77
65
60
75
94
105
116
121
115
126
143
152
165
174
165
153
137
126
120
123
123
116
100
81
49
53
55
60
72
78
84
82
75
68
57
40
25
23
30
39
50
62
67
74
68
74
78
78
73
62
36
6
77
128
152
162
169
174
181
172
182
180
152
163
172
179
181
179
171
157
53
88
89
76
119
139
128
120
113
94
72
52
30
6
32
70
81
87
88
96
99
101
98
96
95
90
91
91
83
73
75
81
96
104
111
120
117
107
115
135
151
165
170
170
164
157
138
121
111
112
118
125
118
107
91
57
45
59
74
83
97
104
102
101
102
103
99
93
79
70
61
61
67
74
79
76
78
81
77
71
46
4
65
119
149
161
164
172
176
167
175
154
144
161
175
183
189
190
183
173
30
66
83
75
121
129
116
111
110
98
79
57
34
11
39
72
82
87
93
98
103
100
98
96
95
95
92
84
83
94
106
106
108
116
119
115
97
104
124
136
143
153
154
149
146
142
140
121
103
96
98
115
125
127
119
106
75
42
52
73
87
91
93
99
104
105
99
96
97
100
100
95
96
84
85
84
83
84
83
76
56
9
56
106
142
159
156
169
171
167
165
143
140
160
176
186
191
194
192
187
3
24
37
45
95
116
104
98
99
96
80
58
37
16
42
72
84
92
97
101
106
105
103
99
97
91
94
104
113
113
113
115
113
115
110
98
114
129
127
119
130
139
135
133
126
121
127
127
114
97
86
89
114
130
137
134
127
107
68
47
50
68
81
85
85
85
85
88
96
98
105
109
106
104
92
85
84
87
88
81
61
16
29
97
121
143
161
167
161
163
160
138
143
162
180
187
193
197
197
196
14
22
36
50
70
109
100
89
84
86
83
65
41
19
42
72
86
95
99
102
105
104
104
106
111
112
117
120
120
121
118
122
115
107
95
122
141
145
133
123
126
131
122
115
110
108
127
141
142
125
103
75
92
122
135
142
143
139
136
114
82
64
53
53
59
67
74
79
87
96
104
109
108
107
99
90
90
88
90
86
69
24
16
75
122
136
155
167
163
161
143
123
144
168
183
192
198
201
197
192
35
44
53
59
62
104
100
85
73
68
75
69
45
23
39
73
90
98
103
105
104
110
119
117
117
119
122
123
127
123
120
116
110
106
106
134
143
117
81
94
124
126
116
107
105
109
125
140
152
144
127
96
78
105
131
139
142
142
141
140
138
123
103
91
86
87
90
92
100
106
108
106
108
109
104
97
92
92
91
86
72
32
3
63
113
135
154
165
161
146
111
104
143
177
187
194
199
196
194
184
42
53
58
61
55
88
100
85
64
49
53
65
51
30
36
76
95
101
104
105
110
112
119
118
123
123
125
127
124
122
121
115
107
106
104
123
109
27
0
2
94
114
111
111
71
41
70
117
142
140
129
106
89
106
129
135
139
145
148
145
144
144
142
135
124
116
113
113
113
112
111
110
107
104
101
98
94
92
88
83
74
40
0
43
101
132
155
164
150
115
79
111
160
188
195
200
197
189
188
188
44
51
51
54
47
48
83
110
75
45
41
55
54
34
33
75
93
100
104
112
115
116
120
122
125
125
126
127
125
125
122
117
109
102
95
109
91
41
7
15
71
98
102
101
30
9
0
6
103
128
111
96
87
110
126
136
138
138
144
145
147
143
143
143
138
127
123
115
110
110
107
106
105
101
95
98
94
90
87
83
76
41
0
25
88
125
148
155
125
71
64
138
177
186
198
196
183
184
189
197
25
37
48
47
40
44
73
105
109
74
57
55
51
34
29
74
92
99
105
114
114
114
120
122
124
124
125
120
127
127
122
116
110
106
90
87
85
78
55
54
60
80
83
73
44
26
8
23
84
113
95
76
82
115
127
136
133
134
139
139
139
140
141
139
138
131
126
119
109
105
102
100
100
100
97
97
95
91
89
85
76
39
0
18
71
117
139
138
82
45
92
155
187
187
194
193
185
187
179
182
1
22
42
45
35
36
68
104
129
104
85
62
42
27
25
72
91
100
105
110
111
117
121
122
125
123
123
122
128
123
119
117
117
112
97
78
65
72
80
88
81
61
58
46
39
38
42
57
88
86
72
66
91
115
126
135
131
131
130
130
134
135
136
138
136
133
128
121
116
111
103
98
99
100
99
99
97
92
87
81
70
28
0
15
60
99
124
113
47
73
131
175
197
198
200
190
186
184
154
145
23
16
36
42
32
12
29
69
117
132
114
79
36
25
21
70
91
104
107
112
113
117
124
123
124
124
126
127
131
122
117
118
118
118
112
97
93
95
101
97
95
83
72
73
69
65
58
46
44
43
50
69
100
113
122
130
126
129
125
129
132
130
130
129
129
128
123
119
117
114
103
100
97
98
98
97
96
91
84
76
58
15
0
13
52
87
109
85
46
93
145
192
192
188
194
176
155
156
137
125
50
40
27
39
29
2
2
38
84
122
121
106
47
24
20
70
93
102
108
112
115
115
122
120
123
125
126
122
125
128
123
123
121
120
115
109
106
106
108
107
103
88
94
99
95
84
79
75
69
71
84
102
111
116
118
122
122
123
123
124
123
123
123
122
121
122
118
110
112
116
109
104
98
101
98
93
95
87
81
67
43
4
0
9
44
70
87
69
87
131
164
194
194
187
174
157
130
127
121
121
50
47
40
36
22
0
1
19
47
91
124
140
96
25
19
67
90
99
108
113
116
120
117
119
121
123
123
125
128
132
124
122
124
120
114
115
114
113
115
114
112
94
105
107
106
103
97
97
95
97
108
117
114
114
117
118
121
122
118
117
118
115
112
112
113
113
112
106
108
111
107
103
100
101
94
93
97
88
77
57
24
0
0
6
34
58
70
72
123
161
164
192
203
196
182
155
126
122
116
119
45
40
37
27
11
0
0
5
25
61
96
96
123
48
18
62
87
96
107
114
114
118
116
113
115
120
121
121
125
129
126
120
121
116
115
118
118
115
115
110
113
102
107
110
105
103
105
104
101
104
115
124
120
119
114
120
132
119
115
115
110
109
104
106
106
104
103
103
103
105
105
102
101
101
95
93
93
85
68
42
9
0
0
5
28
45
50
87
150
179
196
211
213
203
182
158
130
121
107
107
35
31
26
22
5
0
0
0
6
38
93
106
129
94
23
53
83
97
104
112
111
113
113
112
114
114
113
111
121
119
119
116
114
118
117
114
117
114
113
113
111
102
108
109
108
102
103
104
104
103
113
112
119
122
113
114
119
114
115
111
108
104
100
99
97
94
94
96
95
96
93
95
97
96
94
93
89
79
54
24
2
0
0
8
27
36
42
116
188
199
194
213
219
206
170
159
128
106
93
98
37
30
22
15
0
0
0
0
0
14
66
111
107
97
47
41
80
93
103
106
109
108
113
116
117
117
119
114
118
114
112
111
117
116
115
114
116
113
117
116
112
105
108
110
109
100
100
102
103
107
101
102
110
115
123
119
119
121
111
107
100
94
93
91
89
87
82
89
88
89
88
91
93
96
94
94
88
70
39
7
0
0
0
12
24
25
66
162
193
198
212
203
193
184
154
146
115
96
93
114
27
24
21
8
0
0
0
0
0
1
19
80
116
127
76
34
75
90
98
103
106
107
110
115
119
118
113
114
115
111
114
108
110
110
112
114
119
111
98
100
112
111
108
103
102
101
98
97
104
103
100
103
113
120
117
111
111
116
108
105
99
92
88
86
80
79
77
82
84
86
87
88
89
94
95
94
85
57
21
1
0
0
0
8
11
25
121
169
122
135
151
160
173
173
160
146
113
100
104
138
25
23
16
5
5
0
0
0
0
0
0
24
91
125
67
45
64
86
93
97
101
103
111
112
115
115
109
111
113
109
106
101
102
106
107
101
87
70
63
61
67
80
73
68
78
93
100
98
93
93
97
105
109
102
106
118
107
103
105
101
97
87
85
84
81
78
78
82
81
82
87
84
87
92
89
89
77
40
5
0
0
0
0
1
13
77
137
125
79
63
55
80
125
146
156
159
124
104
106
134
27
23
7
26
35
24
2
0
0
0
0
1
54
114
101
77
55
83
92
97
101
104
110
107
106
109
107
108
111
109
102
92
86
82
70
57
43
34
24
22
24
43
42
33
54
63
75
90
91
90
88
89
90
108
110
110
101
99
95
93
94
85
81
80
80
79
78
80
79
81
83
82
86
87
83
84
67
18
0
0
0
0
0
23
114
133
147
170
137
90
40
5
33
83
120
151
137
110
113
135
26
10
7
53
67
74
43
21
0
0
0
0
12
87
132
96
52
75
91
98
99
100
101
99
101
106
108
111
110
101
85
58
37
22
14
12
9
6
6
4
8
15
14
4
11
26
40
55
73
89
86
85
90
99
101
106
103
102
95
88
90
85
81
78
77
79
76
79
79
79
83
85
86
83
83
79
50
3
0
0
0
0
11
132
187
191
200
173
142
101
57
9
1
40
100
137
148
136
133
142
13
13
21
62
80
104
88
79
16
0
0
0
0
42
113
113
93
58
89
95
97
97
102
102
107
106
108
108
107
90
64
49
67
75
67
59
54
48
40
31
27
21
26
28
12
7
6
15
30
52
69
77
89
101
102
97
99
98
86
83
84
82
78
78
76
80
81
79
78
78
83
81
81
85
84
75
25
0
0
0
0
0
58
160
189
189
171
157
145
120
84
31
3
28
87
121
146
147
144
147
3
19
54
67
99
115
96
110
84
38
1
0
0
8
72
126
124
63
73
93
94
96
101
104
107
107
108
105
100
81
72
76
88
99
99
96
94
94
87
77
70
63
55
52
43
31
25
21
15
13
10
9
33
86
102
108
97
94
87
82
83
79
78
76
74
78
77
76
78
78
78
79
79
86
82
58
5
0
0
0
0
27
135
180
165
170
167
151
163
127
91
38
2
12
66
102
110
115
129
145
8
24
62
56
102
106
127
107
131
97
36
2
0
0
31
111
115
80
33
83
91
93
97
101
104
106
104
102
95
88
89
90
100
99
97
94
91
92
89
81
74
84
82
86
84
77
74
60
56
54
46
35
22
29
89
103
99
94
87
85
84
80
78
75
75
77
74
76
81
82
80
79
82
82
77
32
0
0
0
0
0
58
146
180
153
180
177
157
144
108
73
26
0
2
26
42
38
64
110
134
12
37
62
80
108
111
123
88
133
124
101
36
2
2
13
92
127
124
50
45
82
86
97
99
103
103
105
103
104
103
97
97
106
102
95
92
86
81
80
76
69
73
79
83
89
92
92
88
84
83
74
66
56
46
65
98
106
98
92
85
84
82
83
79
79
75
74
77
82
83
80
81
83
81
61
7
0
0
0
0
11
126
160
171
163
163
137
128
107
84
62
29
8
5
3
1
0
33
97
106
16
35
59
78
75
106
119
130
135
135
132
97
38
5
6
51
113
121
80
21
60
84
93
97
100
102
107
107
105
104
100
105
101
101
101
95
84
76
71
62
47
40
50
64
80
86
88
90
89
90
87
81
74
70
69
83
99
99
93
89
87
84
81
84
83
78
81
84
84
85
82
81
80
73
26
0
0
0
0
2
91
163
155
153
149
136
124
108
108
92
69
42
25
22
16
4
0
32
85
98
47
33
65
80
93
108
101
123
115
141
134
127
100
24
13
16
75
131
97
75
44
63
84
91
98
100
105
102
102
107
106
104
99
97
96
91
84
69
54
47
46
40
32
23
36
70
85
86
87
92
90
90
89
84
82
86
95
99
96
91
91
87
85
87
81
76
80
87
85
84
84
80
73
45
2
0
0
0
0
44
136
148
172
130
119
97
118
109
106
93
77
56
46
43
35
19
2
35
88
104
83
34
53
67
92
109
111
130
127
152
119
149
119
79
14
11
32
109
89
75
62
11
57
83
87
92
100
101
104
105
104
101
101
96
92
87
86
80
80
84
87
86
79
63
47
36
65
87
87
86
90
89
90
86
87
86
90
97
97
97
91
88
86
84
79
78
82
88
86
85
80
72
56
7
0
0
0
0
30
112
145
148
164
120
118
99
103
115
102
93
84
70
64
56
57
42
10
20
71
97
143
102
65
83
92
104
109
123
107
132
136
144
113
118
40
17
19
47
106
96
76
20
7
50
80
83
89
97
101
106
104
98
98
99
94
95
94
92
94
96
99
97
95
88
78
65
59
74
87
87
90
89
87
83
88
87
90
92
96
98
92
87
85
86
83
83
85
84
84
82
74
56
13
0
0
0
0
1
70
147
135
159
162
151
116
97
122
120
97
87
87
79
76
71
71
59
18
5
47
85
155
137
93
75
90
97
118
114
102
109
133
127
148
126
107
31
19
20
65
98
117
95
41
16
43
74
82
88
93
102
103
98
98
98
100
100
97
97
101
99
101
99
96
96
91
83
78
81
82
84
88
86
81
81
86
88
89
89
93
96
91
86
85
83
82
85
81
80
79
73
56
15
0
0
0
0
0
26
108
153
159
167
141
140
90
103
112
92
84
91
98
89
86
81
87
73
20
0
14
52
139
140
119
96
91
90
86
100
129
121
151
125
137
89
137
75
31
25
16
55
101
107
89
50
23
25
70
81
88
95
98
98
101
101
105
101
95
101
105
100
98
98
96
97
94
89
86
88
88
85
83
82
79
80
82
86
89
87
91
93
89
87
85
84
82
81
80
76
68
50
11
0
0
0
0
0
13
89
138
135
152
144
115
104
79
102
94
96
85
94
101
95
98
91
97
83
25
0
0
10
138
139
126
92
84
89
102
111
120
97
134
126
149
138
156
119
59
32
21
21
37
67
114
104
66
58
61
68
81
90
96
96
99
103
106
107
100
101
104
102
104
101
97
96
93
91
89
90
85
83
80
77
76
76
81
85
87
87
89
88
86
83
84
84
80
78
73
62
39
6
0
0
0
0
0
2
81
133
132
156
155
132
130
72
89
95
88
86
91
101
99
97
104
94
105
93
25
0
0
0
152
139
114
97
79
86
87
102
109
139
145
137
143
127
89
134
101
51
33
23
17
31
62
107
110
93
82
57
57
77
89
96
99
104
108
109
103
103
105
101
102
100
94
94
94
89
85
86
84
80
81
79
77
77
81
83
83
84
86
85
83
80
81
80
76
70
54
24
2
0
0
0
0
0
1
48
131
145
148
154
132
111
114
71
89
85
74
85
93
105
104
105
111
105
107
80
14
0
0
0
137
121
103
84
60
91
108
116
111
129
102
149
137
149
125
158
125
90
41
42
30
28
20
73
124
123
113
114
86
75
61
91
102
105
104
106
105
104
99
88
87
86
86
88
89
86
86
82
77
77
79
76
77
78
78
79
81
83
84
82
80
78
74
69
59
32
6
0
0
0
0
0
0
0
30
112
116
149
162
143
143
124
93
71
82
73
82
92
99
105
102
110
110
112
111
79
11
0
0
0
113
100
90
62
65
88
95
84
115
123
129
149
115
162
121
149
137
122
71
46
52
48
32
23
49
49
19
25
59
79
43
50
91
104
102
99
96
96
87
78
76
76
79
81
84
78
81
75
72
77
77
74
76
76
78
79
78
80
78
74
71
68
55
31
7
0
0
0
0
0
0
0
0
36
104
120
144
153
145
121
135
120
95
81
74
82
91
92
105
105
105
115
99
117
109
74
9
0
2
4
97
85
70
41
61
89
91
105
118
117
121
132
137
148
130
135
151
129
95
56
48
51
64
51
46
17
17
12
98
113
99
99
95
83
101
95
93
91
81
75
75
77
80
85
85
82
79
73
69
72
73
75
78
77
78
74
70
67
63
53
37
17
4
0
0
0
0
0
0
0
0
1
29
105
125
147
145
132
112
134
119
105
96
78
78
89
85
93
96
94
107
113
106
122
124
74
11
4
10
13
39
22
25
28
51
63
91
110
119
125
135
129
138
112
165
138
169
122
131
97
54
60
62
47
68
51
49
21
95
149
152
149
146
96
75
87
95
88
81
80
81
80
82
90
89
82
80
74
74
75
78
78
78
73
65
49
35
22
10
2
0
0
0
0
0
0
0
0
0
0
2
33
86
107
142
155
157
142
127
124
110
108
88
74
87
90
86
100
96
98
117
106
116
116
105
45
13
14
18
20
0
0
4
19
50
71
90
105
124
118
141
114
158
134
155
98
145
130
133
109
84
48
51
66
80
59
75
54
57
95
149
169
167
124
114
86
63
63
81
84
86
86
85
85
83
78
78
79
79
80
78
74
57
29
9
1
0
0
0
0
0
0
0
0
0
0
0
0
0
7
49
74
114
139
143
125
117
137
121
114
105
88
64
78
86
78
94
97
102
111
123
112
128
121
94
29
16
18
25
29
0
0
1
14
36
51
72
94
118
139
131
121
124
135
138
165
157
156
118
144
117
68
59
59
72
81
80
64
64
57
113
159
167
142
116
94
67
6
4
17
29
36
37
39
41
42
44
45
45
39
26
10
0
0
0
0
0
0
0
0
0
0
0
0
0
0
0
3
11
37
85
116
131
134
111
134
116
112
105
100
89
61
69
82
81
89
95
104
110
129
116
119
122
109
58
20
19
25
28
34
0
0
0
13
35
61
91
88
85
120
117
157
135
161
134
163
108
156
130
147
101
107
60
50
54
71
67
80
67
61
53
117
146
152
159
141
105
52
17
3
0
0
0
0
0
0
0
0
0
0
0
0
0
0
0
0
0
0
0
0
0
0
0
1
3
7
12
17
32
52
99
127
129
132
126
124
114
100
97
87
59
61
79
82
89
98
109
107
116
129
118
133
119
96
37
19
21
26
34
39
0
0
0
5
24
48
66
82
104
125
129
148
108
142
135
148
156
169
141
135
150
136
94
55
54
63
54
86
75
86
57
61
74
147
171
164
139
110
81
72
38
20
10
6
3
0
0
0
0
0
0
0
0
0
0
0
0
0
1
2
5
8
12
14
15
15
17
30
42
75
93
88
99
116
121
112
104
94
85
61
47
67
68
91
100
98
124
112
138
130
134
125
99
50
26
23
26
34
37
43
0
0
0
0
23
43
54
77
90
91
129
124
159
163
163
134
167
118
165
130
153
101
125
75
56
52
63
67
56
71
61
64
35
72
118
151
163
149
124
90
106
82
75
66
51
26
25
17
19
7
4
2
6
4
2
3
7
10
14
17
19
18
17
16
13
12
21
45
65
75
65
75
97
84
96
97
84
85
63
48
62
61
80
110
95
120
122
125
128
117
140
111
74
36
25
27
31
36
44
47
0
0
0
0
10
33
55
84
93
109
138
132
158
119
161
148
159
141
159
115
152
142
148
119
76
53
56
54
67
78
71
58
65
38
62
77
135
149
154
141
116
81
80
63
90
67
68
61
75
66
50
50
56
62
56
66
64
57
56
37
32
28
21
14
11
14
37
47
42
54
79
63
77
87
86
83
85
65
44
63
77
82
108
110
106
128
121
139
135
137
122
86
44
31
29
28
33
41
44
48
0
0
0
0
1
24
52
69
82
110
104
138
144
145
146
141
128
164
144
156
140
135
102
143
113
71
54
57
53
53
76
59
65
46
54
26
65
83
116
138
145
148
115
103
115
104
83
61
89
106
87
81
91
112
110
117
112
117
125
109
110
102
107
93
79
62
61
54
60
54
63
74
84
78
84
84
72
49
61
77
92
103
120
91
126
123
114
121
117
129
104
64
40
34
31
32
36
42
49
52
0
0
0
0
0
11
51
69
92
103
94
129
119
162
128
169
149
153
115
161
120
151
140
166
135
113
74
58
49
50
56
56
49
71
61
56
63
48
49
85
120
144
154
148
147
140
133
122
125
129
133
133
135
129
151
143
148
148
149
150
141
150
143
142
141
128
117
130
96
61
71
69
77
80
82
73
52
62
83
105
105
130
133
116
131
108
129
121
115
103
68
51
44
37
38
38
41
48
52
55
0
0
0
0
0
0
28
60
70
85
120
134
144
148
135
152
139
158
162
177
132
158
125
137
153
140
117
75
52
52
50
56
61
67
53
63
48
66
56
69
90
101
116
110
111
104
126
122
115
117
107
133
140
131
139
119
137
105
121
100
132
145
117
152
141
156
158
148
149
130
92
79
79
83
77
59
55
85
110
116
101
134
115
124
112
109
114
111
99
64
54
58
58
44
40
45
46
50
56
62
