P2
# CREATOR: GIMP PNM Filter Version 1.1
100 100
255
3
3
3
3
3
3
2
2
2
3
2
2
2
2
2
2
2
2
2
2
2
2
2
2
2
2
2
2
3
3
2
2
2
2
2
2
2
2
2
2
1
2
2
6
8
8
7
8
9
10
10
11
10
10
11
11
11
11
10
11
11
11
12
12
12
11
13
12
11
11
11
11
11
11
10
10
10
10
9
8
9
10
10
10
10
10
9
10
9
6
4
3
4
4
3
4
4
5
9
86
4
4
4
4
4
4
4
3
3
3
3
3
3
2
2
2
2
3
3
3
3
2
2
2
2
2
2
3
3
3
4
3
3
2
2
2
2
2
2
2
2
2
2
2
6
7
8
8
8
9
10
9
10
9
10
10
10
10
10
10
10
11
11
12
12
12
13
12
12
12
11
11
10
10
10
9
8
8
7
8
9
10
11
10
12
11
9
10
8
6
3
3
3
3
3
4
4
5
48
126
6
5
5
5
5
5
5
4
4
4
4
4
4
4
4
4
3
3
3
4
4
4
3
3
3
3
3
4
4
4
4
5
5
4
3
3
3
4
4
4
3
3
4
3
3
4
8
9
10
9
9
10
8
10
10
9
10
10
10
10
10
12
11
12
12
12
13
12
12
13
12
11
10
8
7
7
6
6
6
8
9
10
11
11
11
11
10
9
8
6
4
3
3
3
3
4
4
20
102
137
6
6
6
6
6
6
6
6
6
6
6
6
6
5
5
4
4
4
3
3
5
4
4
4
4
4
4
4
4
4
4
5
5
6
6
4
4
4
5
5
4
4
4
4
5
4
5
6
9
10
10
10
10
10
10
11
10
10
10
11
10
12
11
13
13
14
13
12
12
12
11
9
7
6
6
6
6
6
7
8
10
11
12
10
11
11
10
9
7
5
4
4
3
3
3
4
8
70
128
139
7
7
7
7
7
7
6
7
7
6
6
6
6
6
6
6
6
5
4
4
5
5
6
6
5
4
4
5
4
4
4
4
5
6
6
6
5
4
5
6
6
6
6
6
6
6
5
4
5
7
9
10
10
11
10
10
11
10
10
11
12
12
12
13
13
12
12
11
11
10
8
8
6
6
6
6
6
6
8
10
10
11
10
10
10
11
10
9
8
4
3
4
3
3
3
4
41
112
139
153
8
7
8
8
8
8
8
8
8
8
7
7
7
8
7
6
6
6
6
6
5
6
6
6
6
6
6
5
5
6
4
5
6
6
7
7
6
5
5
6
6
7
6
6
5
4
5
4
4
5
5
8
11
12
11
12
11
12
13
12
12
13
13
12
12
12
11
10
10
8
7
7
6
6
6
6
7
8
9
11
12
11
10
10
11
11
10
9
7
4
4
3
3
4
4
20
95
133
150
152
7
7
8
8
8
8
8
8
8
8
8
8
8
8
8
8
8
8
7
7
6
6
6
8
8
7
6
6
6
6
6
6
6
7
8
8
8
8
6
6
6
6
5
4
4
3
3
3
4
4
4
4
5
9
11
12
12
12
12
13
12
12
12
11
10
10
10
8
7
7
6
7
6
6
6
7
8
9
10
11
11
12
10
10
10
11
11
9
7
4
3
3
4
3
6
72
122
136
130
135
6
7
7
7
7
8
8
8
8
8
8
8
8
8
8
8
8
8
8
8
8
8
7
8
8
8
8
7
7
8
7
6
8
8
7
7
8
8
7
6
6
6
11
16
6
4
4
3
3
3
3
3
3
3
6
10
10
11
12
11
11
10
11
10
10
8
8
7
7
6
7
6
7
8
7
8
9
10
11
12
11
11
10
9
10
10
9
9
7
4
4
3
4
4
46
114
120
122
130
134
2
3
3
4
4
4
5
6
6
7
8
9
10
10
8
9
8
8
8
8
8
8
8
8
8
8
8
9
8
8
8
8
8
8
8
8
7
8
7
6
11
18
24
23
16
14
14
14
16
15
14
12
10
10
5
6
10
12
11
10
10
9
8
8
8
8
7
6
6
7
7
8
7
8
9
10
10
11
11
11
12
10
10
9
10
10
9
8
6
5
4
3
4
19
105
119
118
139
143
142
1
2
2
2
2
2
2
3
3
6
8
14
16
14
12
9
8
10
10
10
11
12
12
13
15
16
16
15
14
14
14
13
11
10
8
12
16
29
25
19
26
30
34
31
32
31
38
38
38
38
36
34
32
30
24
23
14
12
11
10
9
9
8
8
7
7
8
7
7
7
8
8
8
10
12
12
11
12
12
11
10
9
9
9
9
9
9
8
6
5
4
3
5
76
124
123
140
148
149
150
1
2
2
2
2
2
2
3
4
6
10
14
13
10
8
8
8
10
11
13
15
15
16
19
20
18
17
16
17
15
13
10
14
21
18
25
29
31
34
35
36
42
45
44
50
53
55
54
54
54
50
49
43
42
36
31
26
24
17
11
10
9
8
8
8
7
8
8
8
8
8
8
9
11
12
12
12
10
10
10
10
9
8
8
8
8
8
7
6
5
4
4
31
121
130
134
146
148
151
152
2
2
2
2
2
2
2
3
6
9
11
13
11
8
7
10
11
12
15
15
16
17
20
18
18
16
14
15
18
14
16
23
29
33
42
46
52
53
53
61
58
62
60
67
65
70
61
63
61
60
60
58
55
50
46
42
36
31
23
20
15
12
11
9
9
8
9
8
9
10
10
11
11
12
12
12
12
12
10
10
9
10
10
9
7
8
8
6
6
4
4
4
96
141
131
139
142
146
149
149
2
2
2
2
2
2
2
4
8
10
10
11
9
8
10
12
13
15
14
14
17
19
17
16
14
12
12
11
16
20
32
38
55
58
68
63
73
63
73
68
72
70
69
68
64
67
67
67
64
61
59
56
51
46
39
37
33
31
27
24
21
16
14
12
12
10
10
10
10
11
12
12
12
14
13
12
14
12
12
11
10
10
9
9
8
8
8
6
5
4
4
30
140
148
158
153
144
143
144
142
2
2
2
2
2
2
3
6
9
10
8
8
9
11
12
14
15
14
14
16
17
16
13
12
12
12
13
15
27
38
54
56
62
61
72
67
72
72
66
72
72
74
71
75
74
73
72
70
67
62
59
51
48
43
38
32
28
26
23
22
20
18
16
14
12
10
10
10
10
11
12
13
13
14
14
14
14
12
12
11
10
10
10
8
8
7
7
6
5
4
4
73
137
146
150
159
170
158
147
139
2
2
2
2
2
2
3
6
9
8
7
8
12
14
14
14
14
14
16
16
14
13
14
15
18
18
24
30
49
54
60
60
69
65
62
69
68
72
76
76
74
74
67
74
68
68
64
60
58
55
50
48
46
46
43
40
36
33
31
23
22
17
15
14
12
10
9
8
6
4
4
5
8
13
14
15
14
14
12
11
10
11
10
9
8
7
7
6
5
5
4
99
136
145
150
155
157
158
161
158
2
1
2
2
2
2
4
6
8
7
8
11
13
14
13
13
14
14
14
13
15
18
20
26
22
24
40
47
55
56
59
68
65
66
66
73
72
71
66
68
63
65
66
63
64
65
60
60
60
56
57
57
55
54
50
53
50
51
48
44
46
33
27
18
14
12
10
9
8
7
4
2
2
6
7
9
12
14
13
12
11
10
10
10
8
6
6
5
5
4
4
104
129
138
150
158
157
152
151
148
2
2
2
2
2
2
5
6
7
8
10
13
15
14
13
14
14
13
16
20
21
25
26
36
33
40
48
55
62
58
60
62
61
68
68
66
64
62
61
58
62
66
65
60
63
61
59
58
57
58
58
58
60
59
60
63
62
66
61
60
56
51
48
38
30
21
14
10
9
7
7
5
4
6
8
6
6
8
9
13
14
11
10
8
7
6
6
5
5
4
5
90
124
134
141
144
145
145
142
132
2
2
2
2
2
2
4
6
7
10
12
14
14
13
14
14
16
21
23
22
27
28
32
32
44
48
54
57
57
59
57
60
66
63
57
60
57
60
59
58
59
59
54
56
54
54
54
59
60
66
70
71
74
77
75
78
77
79
79
72
73
68
64
59
51
42
32
21
14
9
7
6
6
4
7
8
8
8
9
13
15
12
9
6
5
6
6
5
4
4
4
60
122
131
134
134
132
130
129
125
2
2
2
2
2
2
4
5
8
12
12
12
13
14
14
17
22
24
26
26
27
26
36
42
49
54
56
58
56
57
63
62
57
58
56
55
55
60
54
54
50
52
53
57
53
65
66
70
68
73
74
72
76
75
76
72
76
80
77
82
76
80
72
73
61
61
52
41
30
20
14
8
7
5
5
9
12
14
16
18
16
10
6
5
5
5
5
5
4
4
4
18
111
123
128
128
126
125
124
120
2
1
2
2
2
2
4
6
9
11
11
12
14
14
18
22
23
27
27
27
31
31
42
50
52
58
53
57
60
60
57
57
58
57
53
54
52
49
49
52
52
57
58
62
64
62
64
67
68
66
68
72
72
72
74
78
79
83
82
82
82
82
77
85
75
73
59
57
48
40
29
22
14
7
5
8
12
16
17
16
12
7
6
5
5
4
4
4
4
4
4
4
52
113
122
123
124
121
118
113
2
1
2
2
2
2
4
8
10
10
11
12
14
18
22
26
27
31
28
32
34
42
47
54
55
55
54
57
56
55
52
55
56
54
50
50
51
53
57
58
60
60
62
61
64
64
64
65
69
72
74
76
76
77
76
69
75
73
78
72
75
70
75
70
75
73
74
68
60
54
47
37
28
18
11
8
11
15
15
11
7
6
6
4
5
4
4
4
4
4
4
3
5
59
111
115
117
114
112
109
2
2
2
2
2
2
5
9
9
11
12
12
18
21
27
27
31
26
32
32
42
46
48
50
53
55
58
55
53
52
54
52
53
47
55
56
57
54
57
56
60
61
65
63
66
72
72
68
76
70
74
71
69
66
68
64
65
67
66
59
64
56
57
51
48
46
49
57
66
60
56
50
43
32
22
17
13
14
12
7
6
6
6
5
4
4
4
5
4
4
3
4
4
4
46
100
109
109
106
107
2
2
1
2
2
2
5
8
9
11
12
18
20
25
28
28
25
27
28
42
44
51
50
48
56
57
50
51
55
54
53
48
52
52
58
60
56
58
59
61
65
67
69
72
72
70
66
68
64
68
62
66
64
68
66
70
65
70
64
59
58
52
52
50
49
46
42
40
38
48
53
51
49
43
34
25
16
12
9
8
6
6
6
6
4
4
4
4
4
3
3
3
3
3
3
22
73
98
105
106
1
1
1
1
1
3
6
8
10
11
17
21
23
29
25
26
23
28
39
44
51
46
52
54
49
51
52
53
53
48
49
53
55
56
54
60
57
64
64
70
70
69
68
67
66
66
69
65
68
71
73
74
75
75
70
70
65
66
58
61
59
58
58
60
57
55
49
46
37
34
32
38
42
43
44
36
26
14
11
8
7
7
6
6
6
5
4
4
4
4
3
3
3
3
2
2
3
16
40
54
1
2
2
2
2
4
6
9
10
15
20
24
28
24
27
34
28
37
43
48
51
50
52
54
52
53
58
50
47
53
57
62
56
59
57
62
63
68
68
66
65
72
69
70
77
79
81
79
77
75
76
73
72
70
68
68
69
66
68
66
68
65
66
63
62
62
58
56
52
49
43
35
31
34
38
42
37
21
11
9
8
8
7
7
6
5
5
5
4
4
4
4
3
3
3
3
2
3
4
6
1
2
1
1
2
4
8
10
13
19
24
24
24
25
29
28
34
45
54
48
51
54
52
52
54
53
52
54
54
61
56
60
58
63
67
61
62
60
67
68
74
78
80
81
83
78
80
77
77
78
74
78
79
77
78
81
80
81
75
76
80
78
80
79
83
75
74
65
65
55
56
45
39
36
32
35
41
37
17
10
9
9
8
7
7
6
5
5
6
4
4
4
4
3
3
3
2
3
3
5
1
1
1
1
2
5
8
10
16
22
24
24
22
28
33
36
44
46
54
50
50
51
54
52
57
52
51
57
57
58
59
59
64
61
64
58
66
68
73
75
79
80
81
76
79
80
82
84
87
87
88
91
86
85
85
89
85
88
96
89
102
96
97
86
88
84
78
80
72
67
64
58
52
47
42
36
34
38
31
12
10
10
8
8
8
7
6
5
5
6
5
4
4
3
3
3
3
3
3
4
1
1
1
1
2
6
9
13
18
23
24
23
23
25
35
40
51
50
48
55
53
50
56
56
50
55
57
60
60
59
62
62
57
57
65
66
74
74
79
82
78
82
82
86
90
89
93
93
89
90
88
90
92
95
98
98
103
103
112
102
98
104
88
102
82
101
86
87
73
76
59
54
48
39
35
32
30
26
32
22
11
10
10
8
8
8
7
6
6
5
5
4
4
3
3
3
3
2
3
4
2
1
1
2
3
7
10
14
20
20
22
26
26
33
43
46
47
52
51
48
52
55
55
54
52
61
59
56
61
61
63
59
62
65
71
74
72
75
76
82
80
85
89
95
92
91
88
85
92
96
98
106
104
108
104
110
108
106
102
110
96
111
98
103
93
93
76
72
56
48
36
29
26
22
20
18
17
14
14
20
15
10
10
10
8
8
7
6
6
5
5
5
4
4
3
3
3
3
3
2
2
2
2
2
4
8
10
16
19
20
23
23
30
40
44
48
46
51
52
50
54
57
51
57
61
54
60
58
63
60
58
62
64
74
72
72
72
79
83
88
87
90
86
90
90
98
98
105
108
107
115
108
102
107
102
111
104
113
101
113
102
96
92
80
56
46
30
26
22
21
20
19
17
16
14
12
10
9
7
8
13
11
11
10
9
8
8
6
6
5
5
5
4
4
4
3
3
3
3
2
2
2
2
2
4
7
11
17
19
18
28
29
39
45
46
46
51
50
48
51
50
52
52
57
57
60
61
64
56
58
64
71
68
70
72
74
77
82
85
86
88
97
96
98
108
108
118
105
116
111
103
104
106
113
102
117
104
103
99
87
65
46
34
26
26
26
27
29
30
30
29
28
26
24
22
18
15
12
10
8
7
8
9
10
10
9
7
6
5
5
6
5
5
4
3
3
3
3
3
2
2
1
2
2
4
7
12
17
18
24
25
34
40
48
47
44
49
51
48
52
50
50
60
57
57
62
59
59
59
67
68
67
69
72
75
80
83
78
82
89
102
104
112
114
107
112
107
106
105
106
106
114
106
105
102
90
78
52
42
28
26
30
34
36
37
38
37
38
39
39
39
37
34
30
28
25
22
19
16
14
10
8
7
10
10
9
8
6
5
5
5
5
5
4
4
4
4
4
3
2
2
1
2
2
4
7
13
15
25
31
31
43
43
44
46
50
45
50
51
46
52
57
56
62
58
60
58
60
65
64
66
68
74
72
78
75
76
85
98
106
110
110
108
106
110
110
106
110
108
105
104
99
85
64
52
33
29
29
31
33
36
39
43
42
44
44
45
46
46
45
43
41
39
34
32
29
26
23
20
18
15
11
8
8
10
9
8
7
6
5
5
5
5
4
4
4
4
4
3
3
2
1
2
2
3
8
13
22
30
30
38
39
44
42
44
46
48
46
48
48
54
58
55
65
62
58
61
67
70
65
68
71
73
72
70
77
87
100
107
107
106
109
104
100
108
105
108
102
96
82
69
48
38
33
33
33
34
36
40
42
43
45
47
48
50
52
50
46
44
40
38
36
35
34
31
28
25
22
20
18
16
14
11
8
8
8
8
8
7
7
6
6
5
5
4
5
4
4
4
3
2
2
1
2
3
8
14
32
31
32
41
43
41
46
46
44
50
46
46
52
55
58
60
57
58
59
69
65
62
64
70
72
66
70
76
93
100
99
102
107
106
104
112
107
106
92
87
61
52
40
38
38
37
36
37
39
40
42
45
46
48
51
50
50
46
39
33
32
30
28
28
27
26
24
23
22
20
16
15
14
12
12
11
9
8
8
8
8
8
7
7
7
6
6
6
5
5
5
5
4
2
2
1
2
4
8
16
30
30
36
40
44
40
39
40
44
46
45
46
54
57
57
62
55
61
65
58
62
64
70
66
64
67
80
88
92
96
100
98
105
104
98
96
78
65
48
42
39
42
42
41
42
41
40
42
43
44
44
46
48
48
44
40
39
41
39
41
38
36
30
26
30
34
35
32
30
28
24
21
20
17
14
12
10
8
6
6
6
8
8
8
7
6
6
6
6
6
6
6
8
2
2
2
2
4
15
30
27
31
38
42
39
39
40
39
48
43
48
53
50
58
58
54
58
62
60
60
61
66
62
65
66
77
85
86
89
92
105
92
92
74
60
45
42
41
42
42
42
42
43
43
44
44
43
44
45
44
44
42
39
39
45
50
47
44
42
37
31
32
45
54
57
54
46
41
38
36
35
36
35
32
29
25
19
13
8
6
6
6
6
7
7
6
6
5
5
8
28
66
105
1
2
1
2
4
14
29
28
32
37
42
37
36
39
39
40
44
47
50
53
58
57
52
62
58
58
63
63
62
58
68
75
84
82
84
96
93
86
58
49
40
41
40
44
43
43
44
43
42
42
45
44
42
41
42
43
41
34
38
44
48
50
46
46
36
28
36
57
71
71
63
55
47
40
35
38
44
50
49
45
41
35
29
26
20
14
8
5
4
4
4
5
5
6
6
37
92
122
130
136
1
2
1
2
6
23
29
28
32
36
37
36
38
36
42
40
48
47
50
57
53
53
56
53
56
59
66
58
59
69
75
79
83
85
90
75
55
42
40
42
44
44
44
45
44
44
42
41
42
41
40
38
36
36
36
34
30
38
46
50
46
48
39
29
36
61
80
80
74
64
54
44
38
44
56
61
60
57
52
48
44
38
32
26
22
16
12
8
4
5
4
4
4
21
82
127
138
141
141
146
1
1
1
2
10
28
27
28
32
36
36
33
34
37
39
45
46
48
51
52
51
54
55
54
62
62
57
62
67
77
76
80
90
75
55
37
39
42
44
46
48
50
51
49
49
46
43
41
38
34
32
30
29
28
26
26
35
43
47
42
34
27
35
66
86
84
80
72
64
53
47
55
70
76
76
73
70
66
62
54
51
46
39
33
23
16
13
10
7
5
6
8
47
117
139
144
148
146
148
156
2
1
2
2
12
26
26
27
30
33
32
32
33
38
38
46
44
47
54
45
50
54
52
58
55
57
58
68
76
76
79
83
53
38
36
40
41
43
48
51
54
57
56
53
51
47
42
40
38
33
28
24
22
21
22
33
42
43
36
29
38
61
81
86
82
76
72
60
52
63
82
88
89
89
86
84
82
78
73
67
62
56
48
43
34
24
14
12
10
14
35
82
130
142
148
152
154
152
156
159
2
1
1
3
16
26
26
27
28
32
27
29
34
35
40
42
46
48
46
48
51
51
53
60
54
61
72
72
74
78
60
40
31
35
36
40
42
45
51
57
58
59
58
52
51
56
60
59
54
48
40
32
25
22
34
46
40
45
53
64
75
77
74
71
65
58
62
76
91
101
102
101
98
99
98
93
91
85
81
76
68
60
54
44
37
30
20
22
61
102
126
140
148
152
157
158
158
158
154
156
2
2
2
3
16
24
24
25
26
29
25
29
32
34
42
42
44
48
44
52
48
50
54
54
60
72
74
72
70
46
31
31
33
36
38
40
42
47
54
57
58
56
54
61
70
71
70
66
62
54
46
37
31
32
39
49
62
64
67
64
63
62
58
60
68
88
102
110
112
113
113
111
112
110
106
99
92
88
82
75
68
58
50
42
35
30
54
103
125
138
150
159
163
164
163
160
153
148
151
151
1
2
2
4
17
22
22
23
24
25
24
27
31
36
38
41
45
43
49
47
48
49
56
61
72
70
68
48
32
29
32
34
34
36
40
42
44
46
53
54
53
58
73
80
79
79
80
76
72
67
62
58
52
48
44
48
51
56
58
60
64
74
86
101
108
114
116
119
116
116
117
119
118
114
108
102
96
87
80
70
61
53
44
36
37
83
123
136
145
156
162
168
172
167
162
153
148
146
148
145
1
2
1
4
15
19
20
20
21
22
22
26
32
35
38
39
42
41
48
44
48
49
61
68
70
56
38
25
28
31
34
34
35
37
41
42
44
45
47
48
51
66
82
90
91
88
88
84
79
74
71
66
64
60
56
54
58
66
75
86
96
101
108
114
119
123
125
128
124
122
123
122
118
112
106
102
95
85
79
70
58
50
38
37
96
130
142
150
160
172
172
176
169
165
156
150
146
144
141
143
2
1
2
6
17
16
18
17
19
19
20
26
30
35
36
39
38
46
44
47
50
58
65
68
43
26
24
28
31
32
35
37
38
37
39
40
40
41
40
44
55
68
86
98
98
96
94
94
90
84
78
73
71
66
62
62
66
77
87
97
107
114
119
122
129
132
131
130
128
128
126
125
120
112
102
97
91
87
81
77
61
44
30
86
131
146
156
172
182
175
170
163
158
156
152
150
146
141
137
136
2
1
2
6
14
14
15
16
17
16
19
24
30
34
36
38
40
44
44
47
57
67
62
40
18
23
28
30
32
36
36
38
38
37
37
38
37
37
39
44
56
74
93
101
104
104
106
106
104
96
85
74
65
62
61
64
72
84
97
107
117
123
128
132
134
136
136
132
130
132
129
124
118
111
102
94
87
86
88
88
61
32
53
122
147
166
185
185
171
160
153
152
149
149
149
150
146
140
138
137
2
1
2
7
11
11
14
13
15
14
18
22
29
32
35
35
42
42
48
52
63
60
34
18
22
26
30
34
35
36
38
38
38
38
37
38
36
36
37
43
62
80
95
107
112
115
120
119
118
107
91
76
58
51
50
56
65
80
99
116
130
134
137
138
140
140
140
135
138
137
130
123
115
107
102
95
88
92
96
92
53
31
84
140
164
177
170
156
147
145
145
145
145
146
146
146
143
141
136
134
2
1
2
5
9
10
12
11
13
12
17
23
27
32
34
36
41
44
49
60
58
27
19
24
28
31
34
36
36
36
37
36
36
35
35
36
35
34
36
49
71
87
99
115
125
133
140
135
130
118
106
88
72
60
56
57
57
70
90
115
136
142
147
153
152
149
144
139
138
132
128
121
113
104
99
93
93
100
104
94
40
42
106
150
160
150
145
140
138
139
139
140
141
142
145
142
143
139
137
137
2
2
2
5
8
8
10
10
11
11
16
22
26
32
30
40
43
46
54
55
31
19
23
28
32
34
36
36
33
30
28
27
27
28
28
27
30
33
37
57
78
90
104
126
140
152
152
142
133
123
112
100
91
91
98
99
87
72
76
107
130
151
155
160
157
153
148
144
136
133
125
118
112
105
99
94
99
105
107
88
32
54
120
147
142
140
141
140
139
138
138
137
139
139
143
145
145
144
143
143
2
1
2
4
6
8
8
8
10
11
15
21
26
29
32
38
47
46
56
38
20
24
28
31
33
34
32
28
28
30
30
32
34
33
34
34
35
36
44
62
82
90
114
140
162
176
166
148
136
122
110
100
102
116
124
118
103
83
65
70
107
144
155
162
157
153
150
142
139
130
123
114
109
105
100
102
108
113
112
72
35
62
113
139
142
143
131
119
114
117
124
130
133
134
142
145
148
147
147
146
2
1
2
3
4
6
7
8
8
10
14
20
24
26
33
42
47
49
42
20
23
27
30
30
28
26
28
31
30
30
30
31
31
30
32
36
37
38
49
68
82
92
125
152
186
202
174
149
133
118
99
95
107
118
122
120
108
87
66
55
68
129
155
157
160
155
149
145
139
129
120
114
107
103
103
105
112
118
112
58
44
69
105
140
143
115
108
113
120
122
128
131
144
142
134
141
142
136
140
144
4
3
2
4
4
5
6
6
8
10
15
19
24
27
35
48
46
42
20
21
26
27
28
25
25
29
29
30
29
28
28
27
30
36
40
39
38
42
54
72
79
94
128
158
181
179
160
140
125
112
97
90
100
104
104
100
98
88
72
53
46
83
139
142
145
147
146
146
139
130
119
112
108
105
104
107
116
118
108
50
51
74
105
132
122
125
130
134
140
140
141
150
164
163
142
128
133
134
139
143
4
4
4
4
4
5
4
6
7
10
14
18
22
28
39
44
41
24
19
23
25
25
23
24
25
25
26
25
24
26
34
40
42
42
39
40
44
47
58
74
76
98
138
154
152
152
146
130
116
104
91
83
70
39
20
24
51
72
68
48
41
56
110
136
141
141
139
136
133
128
121
114
111
110
111
114
118
118
106
52
56
80
111
128
128
133
140
146
152
148
148
144
143
146
132
118
125
132
134
138
4
4
4
4
4
4
4
5
6
9
13
17
20
27
43
44
27
16
21
23
22
21
22
21
21
20
22
28
36
40
41
41
41
39
42
45
48
52
64
73
70
108
148
155
144
141
134
123
110
98
89
69
20
11
8
23
47
60
53
40
38
51
98
133
140
138
132
129
126
122
118
113
115
112
110
117
119
117
104
63
62
87
117
138
134
136
142
150
153
144
137
130
120
110
108
106
102
92
79
67
3
4
4
4
4
4
4
4
6
10
12
14
18
30
40
32
18
18
21
21
18
18
19
20
23
30
35
38
41
42
42
42
42
46
49
50
54
58
67
66
76
135
169
170
142
131
118
109
101
90
85
50
26
24
24
32
46
47
40
39
54
85
124
139
141
140
131
126
122
116
114
112
108
105
111
116
119
115
106
80
64
94
127
148
134
131
134
136
133
124
112
94
79
73
61
37
19
13
10
9
3
3
3
3
4
4
4
4
6
8
11
12
18
28
34
21
14
18
19
18
18
18
22
28
31
35
39
41
40
40
41
43
48
50
53
55
59
62
63
64
111
158
169
141
112
84
93
92
82
72
70
52
34
33
34
38
42
56
71
98
123
136
138
138
137
137
133
128
117
114
109
107
105
103
106
114
116
114
107
95
68
94
125
146
132
121
120
113
96
72
54
37
31
40
31
16
14
14
11
10
3
3
3
3
4
4
4
4
4
7
10
11
16
26
27
12
13
16
15
15
17
23
26
30
33
35
36
36
40
40
44
49
52
55
58
58
60
62
60
81
131
154
136
90
32
8
33
65
65
60
56
43
35
37
46
68
93
120
131
139
136
141
142
138
134
136
133
127
119
113
109
106
104
106
108
113
118
115
110
103
85
74
107
128
125
106
82
60
50
48
42
31
29
36
24
17
15
14
12
12
2
2
3
3
3
4
4
4
4
4
7
11
13
21
18
8
11
12
13
16
21
24
27
29
29
31
36
37
38
43
48
52
54
58
59
59
61
60
61
93
124
129
93
31
12
14
33
46
58
56
49
42
61
93
115
130
133
138
142
140
137
138
140
134
135
135
131
125
118
114
110
107
107
109
114
118
122
120
114
111
100
73
63
72
70
57
51
52
52
48
42
32
30
31
23
21
19
17
13
12
2
3
3
3
3
4
3
4
4
4
4
5
10
18
12
5
8
10
12
18
22
22
24
28
31
32
33
37
42
48
52
55
56
58
60
61
61
60
64
90
108
100
62
35
25
32
43
59
77
88
87
111
147
145
142
140
138
138
142
142
140
144
141
137
134
134
126
122
116
112
114
112
116
121
126
128
128
123
120
118
108
86
68
60
57
56
56
56
56
52
44
35
34
32
32
29
26
21
16
12
3
3
3
3
3
4
4
4
4
4
4
4
4
8
7
4
6
9
14
17
19
22
26
28
28
31
36
41
46
50
52
56
58
59
60
61
61
62
67
80
88
80
60
45
44
56
107
134
140
138
138
160
158
151
147
141
132
133
138
140
132
144
138
134
132
131
124
118
114
119
124
132
136
139
140
140
134
128
123
124
114
94
79
70
64
61
60
60
60
56
50
42
40
44
43
40
34
28
22
18
2
3
3
3
3
3
3
3
4
3
4
4
4
4
4
4
6
10
15
17
20
23
24
26
30
34
38
43
47
50
54
56
57
59
60
60
61
62
69
79
78
70
62
53
68
126
150
153
154
151
142
148
154
150
144
138
130
127
126
128
139
140
131
130
131
128
122
120
123
135
146
152
162
159
158
150
140
134
131
130
120
102
88
78
72
68
66
65
64
62
58
49
54
56
52
50
47
40
35
32
2
2
3
3
3
3
3
4
3
3
3
4
4
4
4
5
6
11
15
18
20
22
24
28
31
35
40
44
47
51
53
55
56
58
60
60
62
65
73
84
90
82
83
95
132
151
156
154
157
157
137
133
142
145
135
136
132
120
120
126
134
133
123
126
125
125
121
127
136
153
166
162
158
159
155
149
139
139
137
135
125
111
98
86
80
75
72
72
70
68
62
50
68
74
68
64
62
58
54
50
3
3
3
3
3
3
3
3
3
3
3
4
4
4
4
4
7
12
15
17
19
21
25
28
32
36
41
44
48
51
53
54
56
58
59
60
63
68
76
87
101
113
128
138
150
156
156
158
158
148
138
125
130
143
136
138
132
123
129
129
126
123
116
115
119
123
131
139
140
122
108
108
107
110
116
124
137
143
144
140
130
121
111
98
90
84
78
76
75
74
59
42
74
84
82
78
76
70
81
86
3
3
3
3
3
3
3
3
3
3
4
3
3
4
3
4
7
12
14
16
18
20
24
28
32
36
40
44
47
50
51
52
54
57
58
60
65
73
81
93
110
146
142
140
152
152
150
151
142
138
129
122
127
145
142
132
114
98
94
95
92
94
97
104
105
108
94
66
44
44
54
60
68
82
98
119
136
147
149
142
135
130
121
111
102
94
88
82
80
76
45
38
82
92
93
102
113
123
140
156
3
2
3
3
2
3
3
3
3
3
3
3
3
3
3
4
7
11
14
15
18
21
24
28
31
35
38
41
44
47
49
51
54
56
57
58
65
76
88
107
134
156
144
144
144
143
141
139
130
130
130
128
133
140
127
98
78
70
72
78
79
96
85
86
61
43
30
35
52
66
72
70
76
91
110
129
143
150
149
145
143
138
132
124
113
103
95
90
87
69
36
42
87
100
101
118
146
169
177
190
2
2
2
2
2
2
3
3
2
3
3
3
3
3
3
3
6
11
13
14
17
19
22
26
29
32
36
39
41
44
47
50
51
52
54
57
67
79
94
112
137
153
140
139
143
142
138
132
130
131
121
121
121
112
90
77
70
63
74
80
64
50
34
29
32
36
49
66
78
86
88
94
106
119
131
143
149
150
152
152
150
142
137
132
120
112
102
95
85
53
36
51
104
132
155
182
203
209
217
219
2
2
3
2
2
3
2
3
3
3
3
3
3
3
3
4
6
11
12
14
16
17
20
22
25
29
32
35
38
41
44
46
48
49
51
56
66
78
96
104
132
150
138
136
132
136
132
130
130
112
86
80
70
70
69
74
82
50
44
30
27
28
34
39
48
64
82
97
105
107
110
116
124
132
139
145
150
153
158
157
155
152
146
138
127
116
106
97
75
38
34
48
112
158
195
213
224
228
230
232
2
2
2
2
2
2
2
2
3
2
2
3
3
3
3
3
6
11
12
13
16
18
19
19
18
22
26
30
34
38
40
42
45
47
49
53
65
78
92
103
126
148
131
122
123
126
128
126
98
73
64
62
56
61
62
52
32
21
25
29
36
45
56
69
83
97
108
114
114
112
117
123
130
135
142
148
152
155
159
163
163
162
157
148
134
120
108
95
54
30
30
39
118
189
219
227
228
234
235
233
2
2
2
2
2
2
2
2
2
2
2
3
3
3
3
3
6
10
12
16
22
25
26
30
27
23
22
22
28
32
36
40
42
43
45
49
62
72
85
94
122
144
129
118
114
112
114
94
67
57
59
64
41
32
24
20
24
30
38
47
62
79
90
99
108
113
112
109
106
110
115
120
124
130
138
143
153
159
166
170
171
169
164
153
139
122
109
78
34
28
27
35
120
213
230
235
234
236
236
237
2
2
2
2
2
2
2
2
2
2
2
2
2
2
3
3
6
10
16
22
26
29
32
30
26
27
26
24
20
26
31
35
36
38
41
45
56
68
78
89
104
123
114
106
102
94
81
60
54
57
42
26
21
23
28
33
42
56
63
68
79
91
99
101
99
98
90
91
95
101
109
114
119
125
135
145
156
165
171
177
178
176
166
155
141
124
102
48
28
26
27
32
121
222
233
238
238
241
241
237
2
2
2
2
2
2
2
2
2
2
2
2
3
3
2
3
7
17
22
24
28
32
37
26
26
27
27
25
24
20
25
31
34
36
38
40
49
62
73
77
87
106
103
94
82
68
54
47
38
22
17
22
26
34
47
52
59
64
64
62
69
76
78
77
78
81
86
92
98
106
116
119
124
130
137
150
162
172
179
184
184
178
165
154
140
118
71
28
25
26
26
30
124
233
237
242
242
243
244
241
2
2
2
2
2
2
2
2
2
3
2
3
2
2
3
4
16
22
26
29
33
36
38
32
28
30
30
28
26
23
20
27
31
33
35
38
45
56
62
70
73
82
86
75
58
48
44
28
16
20
25
31
39
49
54
47
46
52
52
50
54
62
69
74
87
100
112
120
125
127
136
134
141
140
146
158
168
177
184
187
186
178
165
154
135
96
40
24
24
25
26
28
116
236
242
244
247
248
246
246
2
2
2
2
2
2
2
2
2
2
2
3
3
3
4
15
23
28
32
36
38
40
41
41
33
32
32
31
29
25
20
20
28
30
32
36
42
49
55
60
60
59
61
52
42
32
20
19
22
27
37
45
51
52
50
44
41
45
53
64
78
89
103
115
129
138
144
144
136
135
135
137
145
148
155
164
172
183
190
192
188
176
163
146
116
62
32
22
23
24
25
27
90
237
247
248
250
250
250
250
4
2
2
2
2
2
2
2
2
2
2
3
2
3
14
26
33
37
40
42
45
46
48
48
41
36
36
34
32
28
24
17
24
28
31
34
39
45
50
53
51
48
41
30
20
18
24
30
38
45
50
52
52
49
45
44
49
62
84
115
137
156
164
161
162
161
159
154
149
148
143
143
146
151
157
168
181
190
194
190
185
172
158
129
81
49
33
25
25
26
28
30
59
230
252
253
255
254
254
254
11
2
2
2
2
2
2
2
2
2
2
2
2
12
28
38
45
50
53
54
54
55
55
55
50
42
40
38
35
32
26
19
20
26
30
33
38
44
46
46
42
33
25
26
32
40
49
54
57
55
53
48
45
46
50
60
76
114
148
170
178
173
168
161
158
156
153
151
147
146
145
148
153
157
163
176
186
194
196
191
180
166
142
96
63
51
36
28
29
31
34
36
50
223
255
255
255
255
255
255
13
5
2
2
2
2
2
2
2
3
3
3
10
29
42
51
60
65
66
65
62
59
59
59
57
49
46
43
38
34
28
20
18
25
30
32
37
40
41
40
37
34
40
50
60
64
74
70
60
53
48
48
53
64
80
101
132
168
183
192
182
174
166
158
153
147
145
146
145
143
145
147
154
160
171
184
194
198
196
185
172
152
108
73
64
52
38
30
30
32
35
38
46
204
255
255
255
255
255
255
13
8
2
2
2
2
2
2
2
2
3
6
28
45
60
73
83
86
88
81
71
62
60
60
61
58
50
48
44
37
30
22
17
24
28
32
35
38
40
39
36
41
51
61
68
67
64
61
55
54
62
73
87
101
116
140
168
185
192
188
176
168
158
152
146
142
143
140
144
145
147
152
158
165
176
190
198
199
190
177
160
122
81
71
63
53
41
32
28
29
32
35
40
179
255
255
255
255
255
255
12
10
2
2
2
2
2
2
2
2
3
22
48
68
91
120
145
162
158
138
110
80
62
60
63
64
58
52
48
40
29
22
18
23
27
32
34
36
38
38
38
45
52
59
64
66
62
57
64
83
90
101
112
122
136
161
174
180
183
176
164
155
149
143
134
136
139
138
138
144
146
153
166
174
185
195
200
194
181
165
132
87
78
72
64
56
45
35
27
26
29
31
37
161
255
255
255
255
255
255
12
10
2
2
2
2
2
3
3
3
16
50
82
125
186
227
244
243
238
224
193
140
78
62
65
69
67
55
50
41
28
22
17
22
26
30
33
35
36
37
39
45
51
55
60
64
63
62
76
99
106
114
123
136
152
167
170
173
171
164
154
145
135
129
126
131
130
136
142
148
152
162
176
182
190
198
198
186
168
141
96
77
76
72
66
58
48
36
28
28
29
32
37
111
254
255
255
255
255
255
14
10
2
2
2
2
2
3
3
12
52
100
172
234
253
254
251
245
234
220
198
159
99
66
66
72
74
64
50
34
27
21
18
22
26
28
32
34
36
37
40
45
48
52
57
61
63
68
78
94
110
118
126
142
150
161
163
164
158
153
144
134
124
117
117
124
125
131
137
154
162
172
183
188
194
198
191
173
148
106
82
80
77
72
68
60
51
39
31
32
33
35
41
101
253
255
255
255
255
255
12
7
2
2
2
2
3
3
10
54
124
215
251
252
250
246
240
232
223
212
189
146
96
77
66
75
80
74
56
33
29
19
19
22
26
28
31
34
37
38
40
44
47
50
56
59
65
74
78
88
110
116
130
134
147
150
154
155
150
144
132
124
118
112
111
116
120
127
140
162
170
180
188
191
195
194
177
152
114
84
84
82
77
75
72
64
54
41
34
36
37
38
44
58
230
255
255
255
255
255
10
4
2
2
3
3
3
6
58
154
237
251
246
239
230
224
217
208
198
189
173
144
97
72
71
77
86
81
66
41
30
16
19
23
26
28
30
34
37
38
38
42
47
50
53
56
64
72
82
88
98
110
121
127
134
142
145
142
140
132
123
114
110
109
105
113
124
131
148
165
172
180
186
190
191
180
154
121
88
84
86
82
80
77
73
67
56
42
38
40
39
41
46
54
214
255
255
255
255
255
8
2
3
3
3
3
4
58
186
248
243
230
218
206
196
187
181
174
165
158
146
129
102
78
74
82
88
85
73
48
24
17
20
24
26
29
31
32
36
37
36
41
46
49
51
55
61
70
76
84
88
102
111
118
124
131
134
130
128
123
116
109
109
113
109
115
130
140
150
161
169
176
181
184
179
154
124
93
83
86
85
84
82
78
75
68
58
46
42
42
41
43
47
53
179
255
255
255
255
255
6
2
2
3
3
3
48
197
245
226
206
191
177
169
163
154
146
138
132
123
116
103
91
80
77
82
86
86
76
40
17
18
20
22
25
28
31
32
34
37
38
41
45
48
49
53
58
64
69
78
82
91
103
112
116
123
122
124
122
115
108
105
110
118
119
120
134
143
151
159
165
172
175
172
152
122
95
84
86
86
85
85
84
80
76
69
60
49
44
44
43
45
47
54
141
255
255
255
255
255
2
2
3
2
3
30
192
236
204
178
165
157
150
146
140
136
127
119
110
102
94
85
80
79
80
84
88
87
74
21
18
19
21
22
25
28
30
31
33
36
39
42
42
46
50
52
56
60
65
73
77
84
95
104
110
116
110
114
113
106
101
104
112
121
122
124
136
143
149
156
162
166
161
144
118
93
85
84
86
88
86
88
85
83
78
70
61
51
46
46
44
46
48
58
122
255
255
255
255
255
2
2
2
2
10
158
224
180
156
148
138
135
132
125
121
117
112
106
98
90
85
78
76
80
83
88
91
88
53
14
17
19
20
22
25
28
30
32
34
37
40
41
43
45
48
51
56
58
63
69
76
80
86
98
107
107
106
107
107
104
104
109
116
120
125
132
138
144
152
157
156
148
132
111
91
85
84
83
87
85
88
90
91
86
79
70
62
53
50
47
45
46
51
62
108
252
255
255
255
255
2
2
2
3
93
207
163
140
133
124
116
112
108
106
102
99
96
93
88
84
77
74
76
81
88
94
93
85
25
12
14
17
19
22
25
27
31
33
36
38
40
42
43
46
48
50
54
58
62
65
74
79
84
90
99
101
102
104
107
107
112
116
118
119
125
132
140
146
150
146
135
121
101
86
84
84
80
83
80
85
91
93
93
87
78
70
63
57
52
46
44
48
55
68
93
248
255
255
255
255
2
3
3
20
166
146
118
108
102
97
95
92
88
88
89
88
84
80
77
76
74
73
76
84
90
98
94
60
22
20
18
14
16
19
24
26
31
34
38
40
42
44
44
46
47
48
51
54
59
64
70
76
84
86
94
98
100
104
105
108
116
120
120
121
126
133
136
136
132
124
109
91
80
78
79
79
81
78
82
91
94
95
94
86
76
69
64
60
56
46
46
51
61
72
96
240
255
255
255
255
2
3
3
64
128
100
98
96
95
92
89
84
81
78
76
76
72
71
68
68
68
73
78
88
98
104
98
40
28
30
33
28
18
17
20
25
30
34
38
39
41
44
45
46
48
49
50
52
56
62
67
73
80
86
92
96
98
102
106
110
116
119
119
122
126
126
122
117
108
94
80
73
74
74
74
78
76
78
88
92
95
96
92
84
76
68
64
64
56
47
48
56
66
78
91
180
255
255
255
255
2
2
11
80
90
94
95
94
92
90
84
78
75
73
70
68
64
64
65
66
68
72
79
91
104
109
95
32
31
34
40
45
43
38
32
28
28
32
36
38
39
42
43
45
47
50
51
54
56
59
63
69
76
82
88
92
98
102
104
109
113
115
116
114
109
107
102
90
79
72
68
68
68
71
75
76
79
85
86
90
95
94
89
82
74
67
66
63
53
49
53
63
73
84
97
159
255
255
255
255
2
4
34
78
87
90
88
87
84
77
72
70
68
66
66
63
62
64
63
68
70
75
84
96
107
112
82
29
30
36
42
47
47
48
50
56
52
30
32
35
37
41
43
46
47
50
52
54
56
59
62
66
71
76
83
89
96
98
101
101
100
99
97
94
90
82
74
68
64
62
62
63
68
69
71
78
82
83
84
88
93
92
86
80
72
68
68
58
51
52
60
69
80
92
104
148
255
255
255
255
2
14
58
76
80
80
78
76
70
65
62
62
61
60
60
61
62
63
64
65
70
76
87
102
108
108
65
30
33
36
44
49
50
53
56
61
74
64
27
30
33
38
41
44
46
48
52
54
57
60
62
65
67
68
72
76
78
80
80
81
81
78
75
71
67
65
63
60
56
56
61
66
69
71
75
77
79
78
81
87
90
90
82
76
70
69
63
55
54
59
68
78
90
100
111
138
250
255
255
255
6
33
61
68
66
66
66
62
57
54
54
57
58
56
57
57
60
64
66
64
66
78
87
104
111
105
44
30
33
37
46
50
51
52
54
55
72
88
57
24
28
31
35
40
43
47
50
54
55
57
59
62
62
64
65
67
68
68
67
66
64
62
61
59
58
56
56
54
56
62
67
72
74
74
73
72
72
73
79
84
87
84
78
72
69
66
58
56
60
68
76
88
99
108
120
138
234
255
255
255
15
39
55
56
54
52
51
50
50
49
48
52
55
54
55
57
59
65
69
67
68
78
91
105
110
86
30
31
35
38
43
46
46
48
56
62
74
90
87
37
42
48
51
49
52
50
50
49
52
52
54
56
56
56
56
56
56
56
55
54
54
54
52
49
48
52
59
64
66
67
71
72
71
71
70
67
66
70
74
78
80
77
76
69
66
62
60
63
68
77
86
98
110
138
168
196
248
255
255
255
23
39
49
50
47
45
45
46
45
44
44
47
52
58
58
54
60
66
70
70
70
78
93
108
108
56
32
35
36
37
38
43
51
56
60
63
70
84
111
70
53
61
66
69
74
76
79
79
81
80
78
80
69
69
66
69
73
63
93
81
67
47
47
51
58
64
67
68
68
68
70
70
70
68
66
63
64
64
65
69
73
74
68
66
65
64
67
72
81
92
130
185
229
251
255
255
255
255
255
255
24
37
44
44
42
40
40
42
42
42
42
43
46
55
60
54
59
67
68
70
74
80
94
109
98
36
31
36
34
35
42
51
54
57
60
64
70
82
98
110
62
64
73
77
80
81
83
85
88
95
102
115
142
164
186
228
238
227
226
214
206
172
136
94
64
62
64
65
68
69
68
69
70
67
64
60
58
58
60
66
70
69
67
67
69
72
82
107
157
212
248
255
255
255
255
255
255
255
255
255
26
34
38
38
37
36
37
38
40
41
42
44
44
46
55
58
59
68
76
69
76
80
94
110
81
32
34
36
35
40
46
50
53
57
60
64
67
80
94
122
80
66
73
81
85
88
90
91
94
98
104
124
170
201
244
254
253
249
244
236
232
230
226
216
184
131
96
78
70
72
66
67
67
66
62
56
54
56
61
65
67
69
72
74
82
126
200
237
248
252
255
255
255
255
255
255
255
255
255
255
26
32
33
34
35
36
35
36
38
40
42
46
48
46
46
56
63
69
75
74
72
76
95
109
64
33
32
36
40
42
47
52
55
57
59
63
66
74
90
128
112
72
70
78
86
92
95
98
101
105
112
128
170
218
254
254
253
251
247
240
236
233
232
231
229
222
210
175
138
118
82
76
66
62
59
56
57
60
69
75
68
77
118
154
200
238
246
250
252
255
255
255
255
255
255
255
255
255
255
255
25
29
32
33
34
36
36
36
37
39
43
46
49
52
49
48
62
72
74
81
74
74
95
107
54
32
33
40
42
44
47
50
55
58
60
63
68
73
90
114
132
82
78
76
80
90
98
104
107
110
117
128
158
219
252
254
253
252
247
241
234
234
233
233
231
226
228
225
221
213
185
154
119
108
104
89
70
82
123
148
159
201
232
236
239
247
250
251
252
255
255
255
255
255
255
255
255
255
255
255
